<svg width="1765" height="1765" viewBox="0 0 1765 1765" fill="none" xmlns="http://www.w3.org/2000/svg">
<path d="M591.248 246.297C595.468 244.171 599.862 242.218 604.314 240.322C624.317 231.761 646.169 247.963 644.146 269.509L586.796 878.463C584.715 900.526 559.277 912.016 541.183 899.089L231.256 677.081C220.907 669.669 216.456 656.282 220.85 644.389C283.171 473.463 410.762 327.251 591.248 246.297ZM591.248 246.297C595.468 244.171 599.862 242.218 604.314 240.322C624.317 231.761 646.169 247.963 644.146 269.509L586.796 878.463C584.715 900.526 559.277 912.016 541.183 899.089L231.256 677.081C220.907 669.669 216.456 656.282 220.85 644.389C283.171 473.463 410.762 327.251 591.248 246.297ZM591.248 246.297C595.468 244.171 599.862 242.218 604.314 240.322C624.317 231.761 646.169 247.963 644.146 269.509L586.796 878.463C584.715 900.526 559.277 912.016 541.183 899.089L231.256 677.081C220.907 669.669 216.456 656.282 220.85 644.389C283.171 473.463 410.762 327.251 591.248 246.297ZM591.248 246.297C595.468 244.171 599.862 242.218 604.314 240.322C624.317 231.761 646.169 247.963 644.146 269.509L586.796 878.463C584.715 900.526 559.277 912.016 541.183 899.089L231.256 677.081C220.907 669.669 216.456 656.282 220.85 644.389M591.248 246.297C595.468 244.171 599.862 242.218 604.314 240.322C624.317 231.761 646.169 247.963 644.146 269.509L586.796 878.463C584.715 900.526 559.277 912.016 541.183 899.089L231.256 677.081C220.907 669.669 216.456 656.282 220.85 644.389M591.248 246.297C595.468 244.171 599.862 242.218 604.314 240.322C624.317 231.761 646.169 247.963 644.146 269.509L586.796 878.463C584.715 900.526 559.277 912.016 541.183 899.089L231.256 677.081C220.907 669.669 216.456 656.282 220.85 644.389C283.171 473.463 410.762 327.251 591.248 246.297Z" fill="#FF8400"/>
<path d="M724.108 1185.34L379.712 1340.23C368.092 1345.4 354.277 1342.65 346.067 1333C304.442 1284.73 270.044 1230.96 241.254 1171.61C186.505 1050.78 169.508 922.773 183.846 800.28C186.39 778.735 211.596 767.991 229.344 780.631L729.022 1135.87C747.059 1148.74 744.342 1176.2 724.108 1185.34Z" fill="#5D53A6"/>
<path d="M1223.77 860.252L1534.57 1073.18C1544.98 1080.37 1549.71 1093.51 1545.72 1105.46C1487.16 1281.21 1355.23 1434.04 1172.32 1517.24C1166.07 1520.05 1159.6 1522.81 1153.01 1525.51C1132.77 1533.84 1110.92 1517.64 1113.23 1495.98L1178.68 880.877C1180.99 859.218 1205.73 847.899 1223.77 860.252Z" fill="#35A753"/>
<path d="M697.326 594.252L737.679 222.057C739.008 209.474 748.554 199.025 761.099 196.784C951.294 164.259 1145.26 212.584 1297.48 325.654C1315 338.639 1311.7 365.699 1291.81 374.662L737.91 623.439C717.56 632.574 694.955 616.314 697.326 594.252Z" fill="#E84335"/>
<path d="M1063.97 1171.66L1023.67 1543.67C1022.29 1556.31 1012.75 1566.77 1000.21 1568.9C810.235 1601.35 616.444 1553.21 464.285 1442.15C446.652 1429.28 449.773 1402.11 469.719 1393.08L1023.33 1142.47C1043.68 1133.28 1066.34 1149.54 1063.97 1171.66Z" fill="#F8BB02"/>
<path d="M1042.75 582.117L1388.12 425.782C1399.86 420.439 1413.9 423.431 1422.17 433.256C1461.83 480.996 1495.76 532.705 1522.42 591.767C1574.91 708.228 1593.58 831.76 1581.44 949.886C1579.24 971.374 1554.33 982.462 1536.41 970.282L1038.42 631.873C1019.86 619.29 1022.29 591.367 1042.75 582.117Z" fill="#4185F3"/>
</svg>
